<svg width="17" height="17" viewBox="0 0 17 17" fill="none" xmlns="http://www.w3.org/2000/svg">
<path d="M5.33333 11.6667L7.61229 9.38771M7.61229 9.38771C8.04208 9.8175 8.63583 10.0833 9.29167 10.0833C10.6033 10.0833 11.6667 9.02001 11.6667 7.70833C11.6667 6.39666 10.6033 5.33333 9.29167 5.33333C7.97999 5.33333 6.91667 6.39666 6.91667 7.70833C6.91667 8.36417 7.1825 8.95792 7.61229 9.38771ZM15.625 8.5C15.625 12.435 12.435 15.625 8.5 15.625C4.56497 15.625 1.375 12.435 1.375 8.5C1.375 4.56497 4.56497 1.375 8.5 1.375C12.435 1.375 15.625 4.56497 15.625 8.5Z" stroke="#0F172A" stroke-width="1.58333" stroke-linecap="round"/>
</svg>
